<svg xmlns="http://www.w3.org/2000/svg" viewBox="0 0 200 200">
  <!-- Outer circle outline -->
  <circle cx="100" cy="100" r="95" 
          fill="none" 
          stroke="#FFFFFF" 
          stroke-width="6" />
  
  <!-- Stylized apple representing nutrition -->
  <path d="M100 60 
           C80 50, 60 70, 70 90 
           C80 110, 100 120, 100 120 
           C100 120, 120 110, 130 90 
           C140 70, 120 50, 100 60" 
        fill="none" 
        stroke="#FFFFFF" 
        stroke-width="6" />
  
  <!-- Flame representing calories/energy -->
  <path d="M100 140 
           C80 120, 70 100, 80 80 
           C90 60, 100 50, 100 50 
           C100 50, 110 60, 120 80 
           C130 100, 120 120, 100 140" 
        fill="none" 
        stroke="#FFFFFF" 
        stroke-width="6" />
  
  <!-- Tracking/progress line -->
  <path d="M50 30 L100 80 L150 30" 
        stroke="#FFFFFF" 
        stroke-width="8" 
        fill="none" 
        stroke-linecap="round" />
</svg>
